Coordinates
version=1
nRows=25
nColumns=33
inDegrees=yes

Units are S.I. units (second, meters, Newtons, ...)
Angles are in degrees.

endheader
time	ground_thorax_rot_x	ground_thorax_rot_y	ground_thorax_rot_z	ground_thorax_tx	ground_thorax_ty	ground_thorax_tz	clav_prot_r	clav_elev_r	scapula_abduction_r	scapula_elevation_r	scapula_upward_rot_r	scapula_winging_r	shoulder_elv_r	plane_of_elev_r	axial_rot_r	elbow_flexion_r	pro_sup_r	wrist_flex_r	wrist_dev_r	clav_prot_l	clav_elev_l	scapula_abduction_l	scapula_elevation_l	scapula_upward_rot_l	scapula_winging_l	shoulder_elv_l	plane_of_elev_l	axial_rot_l	elbow_flexion_l	pro_sup_l	wrist_flex_l	wrist_dev_l	
5.6500	25.206867	31.444090	44.920246	-49.054771	781.896015	5.325095	13.140379	36.945534	35.985274	40.468926	-32.760558	-1885.271375	-2282.254091	149.961721	-121.327855	1449.102480	27.400946	16.604692	10.024056	9.398105	-45.000000	-40.181465	45.000000	-45.000000	2248.644381	-4782.320134	138.302222	-180.000000	364.412895	50.483529	10.237281	-21.917403	
5.6600	25.300998	31.375592	44.775228	-49.297106	781.792149	5.410539	13.159822	36.931670	36.054264	40.440998	-32.674431	-1885.269904	-2282.245914	149.970930	-121.399383	1449.118898	27.307856	16.638821	10.054592	9.025922	-45.000000	-40.048764	45.000000	-45.000000	2248.586245	-4782.312397	138.276479	-180.000000	364.384840	50.466141	10.230476	-21.957752	
5.6700	25.397968	31.309459	44.651726	-49.563121	781.670678	5.492134	13.151006	36.879239	36.113605	40.434070	-32.587123	-1885.220557	-2282.226454	150.005662	-121.460516	1449.126271	27.224378	16.710024	10.112928	8.575138	-45.000000	-39.858821	45.000000	-45.000000	2248.504249	-4782.298631	138.279800	-180.000000	364.326730	50.445502	10.203534	-22.044195	
5.6800	25.451219	31.260125	44.561743	-49.882898	781.510321	5.567014	13.146767	36.856877	36.146987	40.416978	-32.521280	-1885.205543	-2282.222725	150.021184	-121.484866	1449.141647	27.164067	16.752144	10.149808	8.348779	-45.000000	-39.758528	45.000000	-45.000000	2248.465960	-4782.294866	138.284676	-180.000000	364.296418	50.445617	10.195595	-22.089159	
5.6900	25.480769	31.222427	44.491250	-50.258348	781.309975	5.633114	13.137557	36.852985	36.159763	40.402869	-32.477609	-1885.205707	-2282.231484	150.023134	-121.497600	1449.159062	27.122470	16.774037	10.170142	8.222011	-45.000000	-39.704698	45.000000	-45.000000	2248.461065	-4782.298369	138.282944	-180.000000	364.278718	50.459160	10.198645	-22.114802	
5.7000	25.492165	31.194978	44.450074	-50.695440	781.066338	5.687969	13.123231	36.843178	36.156435	40.397175	-32.451795	-1885.196299	-2282.235731	150.033225	-121.496847	1449.179318	27.101987	16.807026	10.201673	8.181165	-45.000000	-39.658233	45.000000	-45.000000	2248.462373	-4782.301738	138.303942	-180.000000	364.261070	50.479851	10.202543	-22.141529	
5.7100	25.494570	31.174071	44.414065	-51.192642	780.782227	5.729420	13.108043	36.851830	36.142632	40.398643	-32.453500	-1885.198904	-2282.247346	150.031096	-121.510658	1449.202831	27.095825	16.821405	10.216155	8.175246	-45.000000	-39.640879	45.000000	-45.000000	2248.493978	-4782.309446	138.310334	-180.000000	364.254680	50.504503	10.216508	-22.153956	
5.7200	25.498868	31.154962	44.392528	-51.745157	780.463528	5.755645	13.092370	36.844275	36.120437	40.414096	-32.467226	-1885.178340	-2282.246715	150.039095	-121.537180	1449.226340	27.103380	16.858660	10.249895	8.165499	-45.000000	-39.592820	45.000000	-45.000000	2248.514153	-4782.312015	138.339299	-180.000000	364.233986	50.522308	10.227447	-22.181554	
5.7300	25.505241	31.137716	44.363812	-52.348420	780.116612	5.765265	13.079795	36.858635	36.094607	40.433553	-32.503231	-1885.176027	-2282.250464	150.028408	-121.593521	1449.250914	27.118525	16.871564	10.258146	8.155580	-45.000000	-39.571242	45.000000	-45.000000	2248.566653	-4782.320664	138.342706	-180.000000	364.221689	50.532769	10.250761	-22.193888	
5.7400	25.515655	31.120877	44.348135	-52.997958	779.748003	5.757490	13.070559	36.858011	36.061897	40.463092	-32.544815	-1885.156829	-2282.239736	150.023191	-121.659601	1449.275037	27.143842	16.905033	10.282355	8.148982	-45.000000	-39.525126	45.000000	-45.000000	2248.607582	-4782.324527	138.369102	-180.000000	364.196844	50.527192	10.273956	-22.216601	
5.7500	25.528368	31.104695	44.325804	-53.689605	779.364043	5.732364	13.062088	36.876141	36.028030	40.494327	-32.604568	-1885.155669	-2282.233100	150.000866	-121.747449	1449.297919	27.172803	16.914054	10.278570	8.139603	-45.000000	-39.505183	45.000000	-45.000000	2248.680252	-4782.331713	138.369060	-180.000000	364.177270	50.506083	10.309043	-22.224647	
5.7600	25.544647	31.087808	44.314458	-54.419895	778.970428	5.690926	13.057735	36.876080	35.987341	40.531530	-32.663044	-1885.141411	-2282.213572	149.982529	-121.835308	1449.319343	27.205809	16.942548	10.290638	8.135287	-45.000000	-39.458256	45.000000	-45.000000	2248.738705	-4782.330662	138.390068	-180.000000	364.142992	50.464060	10.345964	-22.238666	
5.7700	25.564901	31.071043	44.294695	-55.186221	778.571982	5.635220	13.050642	36.891524	35.950197	40.568466	-32.733412	-1885.144213	-2282.196496	149.954376	-121.931255	1449.339814	27.233152	16.948280	10.273972	8.128086	-45.000000	-39.432205	45.000000	-45.000000	2248.825904	-4782.330836	138.384369	-180.000000	364.111769	50.402519	10.392421	-22.239821	
5.7800	25.588751	31.052896	44.284076	-55.987075	778.172385	5.568085	13.047310	36.885757	35.912295	40.609876	-32.800898	-1885.135754	-2282.166005	149.936909	-122.011835	1449.363782	27.251388	16.974535	10.275123	8.126753	-45.000000	-39.381255	45.000000	-45.000000	2248.895021	-4782.318985	138.402430	-180.000000	364.072192	50.317936	10.438991	-22.244984	
5.7900	25.617129	31.033209	44.262002	-56.821949	777.774174	5.492867	13.040728	36.900191	35.879353	40.654517	-32.880464	-1885.139780	-2282.142781	149.912676	-122.087222	1449.389842	27.245880	16.974668	10.241666	8.122142	-45.000000	-39.355076	45.000000	-45.000000	2248.991084	-4782.307376	138.392584	-180.000000	364.035742	50.214133	10.493119	-22.238290	
5.8000	25.648807	31.014733	44.245101	-57.691251	777.378818	5.412946	13.040676	36.899730	35.843833	40.711131	-32.964412	-1885.132301	-2282.117039	149.896561	-122.139306	1449.421820	27.208059	16.985362	10.217636	8.121231	-45.000000	-39.317598	45.000000	-45.000000	2249.071818	-4782.291240	138.402407	-180.000000	363.996962	50.088801	10.547576	-22.233008	
5.8100	25.684784	30.990829	44.220164	-58.595932	776.986957	5.331474	13.036077	36.916005	35.817125	40.768457	-33.059533	-1885.133409	-2282.094669	149.878890	-122.176599	1449.461384	27.120547	16.972749	10.163176	8.117207	-45.000000	-39.300252	45.000000	-45.000000	2249.175072	-4782.273654	138.390736	-180.000000	363.959954	49.946599	10.608505	-22.218170	
5.8200	25.724445	30.967690	44.201791	-59.536887	776.599102	5.250770	13.038799	36.920729	35.787877	40.833903	-33.155409	-1885.124021	-2282.061073	149.870321	-122.182930	1449.510172	26.973331	16.972168	10.122697	8.116383	-45.000000	-39.265052	45.000000	-45.000000	2249.255931	-4782.244492	138.404565	-180.000000	363.924173	49.785579	10.667758	-22.205016	
5.8300	25.770650	30.940802	44.179821	-60.514410	776.216468	5.171946	13.038148	36.950467	35.760938	40.902944	-33.254939	-1885.119208	-2282.024689	149.857520	-122.174182	1449.563602	26.749103	16.949277	10.055116	8.113291	-45.000000	-39.233809	45.000000	-45.000000	2249.355246	-4782.210743	138.398550	-180.000000	363.885295	49.611179	10.733381	-22.184453	
5.8400	25.824251	30.923093	44.164342	-61.527461	775.842414	5.094379	13.048963	36.982473	35.721460	40.991435	-33.356471	-1885.102824	-2281.978066	149.843538	-122.146954	1449.619276	26.439279	16.932118	9.999084	8.112683	-45.000000	-39.184963	45.000000	-45.000000	2249.432992	-4782.174520	138.418280	-180.000000	363.851441	49.419967	10.797565	-22.165903	
5.8500	25.885890	30.905665	44.149678	-62.574096	775.482976	5.016165	13.057178	37.043336	35.687884	41.090983	-33.465928	-1885.083637	-2281.927948	149.829483	-122.123641	1449.672829	26.033386	16.896047	9.925435	8.113844	-45.000000	-39.138729	45.000000	-45.000000	2249.532093	-4782.139991	138.421340	-180.000000	363.814342	49.216154	10.868470	-22.142178	
5.8600	25.955225	30.902131	44.134757	-63.651500	775.148219	4.934494	13.077589	37.106330	35.645869	41.218486	-33.583974	-1885.052415	-2281.878566	149.812600	-122.104348	1449.718462	25.529565	16.863256	9.869111	8.121121	-45.000000	-39.091278	45.000000	-45.000000	2249.614554	-4782.109667	138.445081	-180.000000	363.788957	48.993430	10.937266	-22.119893	
5.8700	26.027240	30.899485	44.110426	-64.757319	774.851874	4.846443	13.095999	37.189539	35.613064	41.355815	-33.710576	-1885.019664	-2281.834322	149.795424	-122.106205	1449.753664	24.933882	16.817493	9.809299	8.132559	-45.000000	-39.062543	45.000000	-45.000000	2249.715869	-4782.078437	138.448129	-180.000000	363.763618	48.754992	11.012373	-22.093627	
5.8800	26.099084	30.904394	44.069184	-65.890113	774.612839	4.749600	13.123480	37.263777	35.576303	41.507533	-33.834077	-1884.986559	-2281.795941	149.770121	-122.120106	1449.778735	24.267740	16.782379	9.779463	8.150568	-45.000000	-39.046503	45.000000	-45.000000	2249.796838	-4782.041376	138.464477	-180.000000	363.753438	48.494828	11.083570	-22.067558	
5.8900	26.160350	30.897169	44.007638	-67.051962	774.453756	4.640419	13.143055	37.353721	35.552762	41.637856	-33.936451	-1884.965835	-2281.745938	149.742737	-122.150188	1449.804640	23.568485	16.755335	9.765360	8.173967	-45.000000	-39.038959	45.000000	-45.000000	2249.885628	-4781.980198	138.460288	-180.000000	363.740677	48.217987	11.157794	-22.037326	
